[IMG]http://i981.photobucket.com/albums/ae294/fasamoo/gogo.gif[/IMG]

[IMG]http://i981.photobucket.com/albums/ae294/fasamoo/plot.gif[/IMG]

Three naïve guys, in their 20s, drive from Illinois to LA. A sleazy real-estate agent gives them a great deal on a house in the Hollywood Hills. The night they arrive, a solitary Mexican, who speaks only Spanish, tries to warn them that the place is possessed by Satan. They don't understand him, move in, and plan a party after they meet Lucy, their gorgeous neighbor from down the hill. An old friend of theirs, studying to be a priest, joins them. In the basement is a portal to Hell, so at the party, guests meet their end in various ways. Lucy and her friends may not be who the lads think. Is there any hope for these innocents? Maybe their neutered dog can help.

[IMG]http://i981.photobucket.com/albums/ae294/fasamoo/screenshots.gif[/IMG]

[url=http://www.imgboot.com/image.php?u=fasamoo&i=killerpad2008dvdripgogo201005291.jpg][img]http://imgboot.com/images/fasamoo/killerpad2008dvdripgogo201005291.jpg[/img][/url]
[url=http://www.imgboot.com/image.php?u=fasamoo&i=killerpad2008dvdripgogo201005292.jpg][img]http://imgboot.com/images/fasamoo/killerpad2008dvdripgogo201005292.jpg[/img][/url]
[url=http://www.imgboot.com/image.php?u=fasamoo&i=killerpad2008dvdripgogo201005293.jpg][img]http://imgboot.com/images/fasamoo/killerpad2008dvdripgogo201005293.jpg[/img][/url]
[url=http://www.imgboot.com/image.php?u=fasamoo&i=killerpad2008dvdripgogo201005294.jpg][img]http://imgboot.com/images/fasamoo/killerpad2008dvdripgogo201005294.jpg[/img][/url]
[url=http://www.imgboot.com/image.php?u=fasamoo&i=killerpad2008dvdripgogo201005295.jpg][img]http://imgboot.com/images/fasamoo/killerpad2008dvdripgogo201005295.jpg[/img][/url]
[url=http://www.imgboot.com/image.php?u=fasamoo&i=killerpad2008dvdripgogo2010052922.jpg][img]http://imgboot.com/images/fasamoo/killerpad2008dvdripgogo2010052922.jpg[/img][/url]
[url=http://www.imgboot.com/image.php?u=fasamoo&i=killerpad2008dvdripgogo201005296.jpg][img]http://imgboot.com/images/fasamoo/killerpad2008dvdripgogo201005296.jpg[/img][/url]
[url=http://www.imgboot.com/image.php?u=fasamoo&i=killerpad2008dvdripgogo201005297.jpg][img]http://imgboot.com/images/fasamoo/killerpad2008dvdripgogo201005297.jpg[/img][/url]
[url=http://www.imgboot.com/image.php?u=fasamoo&i=killerpad2008dvdripgogo201005298.jpg][img]http://imgboot.com/images/fasamoo/killerpad2008dvdripgogo201005298.jpg[/img][/url]

[IMG]http://i981.photobucket.com/albums/ae294/fasamoo/info.gif[/IMG]

General
Complete name                    : Killer Pad 2008 DVDRip GoGoKiller Pad 2008 DVDRip GoGo.avi
IMDB Link                        : http://www.imdb.com/title/tt0787485/
Format                           : AVI
Format/Info                      : Audio Video Interleave
File size                        : 700 MiB
Duration                         : 1h 24mn
Overall bit rate                 : 1 163 Kbps
Writing application              : VirtualDubMod 1.5.4.1 (build 2178/release)
Writing library                  : VirtualDubMod build 2178/release

Video
ID                               : 0
Format                           : MPEG-4 Visual
Format profile                   : Advanced Simple@L5
Format settings, BVOP            : Yes
Format settings, QPel            : No
Format settings, GMC             : No warppoints
Format settings, Matrix          : Custom
Codec ID                         : XVID
Codec ID/Hint                    : XviD
Duration                         : 1h 24mn
Bit rate                         : 1 039 Kbps
Width                            : 640 pixels
Height                           : 336 pixels
Display aspect ratio             : 1.905
Frame rate                       : 23.976 fps
Resolution                       : 8 bits
Colorimetry                      : 4:2:0
Scan type                        : Progressive
Bits/(Pixel*Frame)               : 0.202
Stream size                      : 626 MiB (89%)
Writing library                  : XviD 1.2.1 (UTC 2008-12-04)

Audio
ID                               : 1
Format                           : MPEG Audio
Format version                   : Version 1
Format profile                   : Layer 3
Mode                             : Joint stereo
Format_Settings_ModeExtension    : MS Stereo
Codec ID                         : 55
Codec ID/Hint                    : MP3
Duration                         : 1h 24mn
Bit rate mode                    : Variable
Bit rate                         : 111 Kbps
Nominal bit rate                 : 128 Kbps
Channel(s)                       : 2 channels
Sampling rate                    : 48.0 KHz
Stream size                      : 66.9 MiB (10%)
Alignment                        : Aligned on interleaves
Interleave, duration             : 24 ms (0.58 video frame)
Interleave, preload duration     : 262 ms
Writing library                  : LAME3.98r
Encoding settings                : -m j -V 4 -q 2 -lowpass 17 --abr 128
Language                         : English
Subtitles                        : None
Genre                            : Comedy | Horror

[IMG]http://i981.photobucket.com/albums/ae294/fasamoo/pleaseseed.gif[/IMG]